<svg width="686" height="143" viewBox="0 0 686 143" fill="none" xmlns="http://www.w3.org/2000/svg">
<path d="M241.646 67.1307C241.646 71.4391 237.941 74.5661 233.64 74.5661H185.085C185.546 80.0739 187.482 84.3883 190.893 87.5094C194.304 90.6304 198.499 92.1909 203.477 92.1909C210.001 92.1909 214.817 89.6604 217.927 84.5992C218.525 83.6253 219.551 82.9655 220.694 82.9655H235.666C237.68 82.9655 239.124 84.9135 238.334 86.7667C235.922 92.4263 232.14 97.2178 226.987 101.141C220.718 105.823 213.019 108.163 203.892 108.163C196.517 108.163 189.879 106.557 183.978 103.344C178.17 100.04 173.606 95.4038 170.287 89.4371C167.061 83.4704 165.447 76.5856 165.447 68.783C165.447 60.8886 167.061 53.958 170.287 47.9912C173.514 42.0245 178.032 37.4347 183.84 34.2219C189.648 31.009 196.332 29.4026 203.892 29.4026C211.176 29.4026 217.675 30.9631 223.391 34.0842C229.2 37.2052 233.671 41.6573 236.806 47.4405C240.032 53.1318 241.646 59.6952 241.646 67.1307ZM221.593 61.6229C221.501 56.6659 219.704 52.7187 216.2 49.7812C212.697 46.752 208.41 45.2374 203.339 45.2374C198.545 45.2374 194.488 46.7061 191.169 49.6436C187.943 52.4892 185.96 56.4824 185.223 61.6229H221.593Z" fill="#273454"/>
<path d="M250.799 68.5076C250.799 60.7968 252.32 53.958 255.362 47.9912C258.497 42.0245 262.738 37.4347 268.085 34.2219C273.433 31.009 279.379 29.4026 285.925 29.4026C290.903 29.4026 295.651 30.5041 300.169 32.7072C304.686 34.8185 308.282 37.6642 310.956 41.2442V24.6988C310.956 13.8364 319.747 5.03076 330.593 5.03076V87.2562C330.593 98.1185 321.801 106.924 310.956 106.924V95.6333C308.558 99.3969 305.193 102.426 300.86 104.721C296.527 107.016 291.503 108.163 285.787 108.163C279.333 108.163 273.433 106.511 268.085 103.206C262.738 99.9018 258.497 95.2661 255.362 89.2994C252.32 83.2409 250.799 76.3103 250.799 68.5076ZM311.094 68.783C311.094 64.1014 310.172 60.1083 308.328 56.8036C306.484 53.4072 303.995 50.8369 300.86 49.0928C297.726 47.2569 294.361 46.3389 290.765 46.3389C287.169 46.3389 283.85 47.211 280.808 48.9551C277.766 50.6992 275.276 53.2695 273.34 56.6659C271.496 59.9706 270.575 63.9178 270.575 68.5076C270.575 73.0974 271.496 77.1364 273.34 80.6247C275.276 84.0211 277.766 86.6373 280.808 88.4732C283.943 90.3091 287.262 91.2271 290.765 91.2271C294.361 91.2271 297.726 90.355 300.86 88.6109C303.995 86.775 306.484 84.2047 308.328 80.9001C310.172 77.5036 311.094 73.4646 311.094 68.783Z" fill="#273454"/>
<path d="M421.828 30.6418V87.3947C421.828 98.1805 413.098 106.924 402.329 106.924V97.2856C399.84 100.59 396.567 103.206 392.511 105.134C388.546 106.97 384.213 107.888 379.511 107.888C373.519 107.888 368.217 106.649 363.608 104.17C358.998 101.6 355.356 97.8823 352.683 93.0171C350.101 88.0601 348.811 82.1852 348.811 75.3923V56.6859H368.171V72.6384C368.171 78.697 369.693 83.3785 372.735 86.6832C375.777 89.896 379.926 91.5025 385.181 91.5025C390.528 91.5025 394.723 89.896 397.766 86.6832C400.808 83.3785 402.329 78.697 402.329 72.6384V50.1713C402.329 39.3855 411.059 30.6418 421.828 30.6418Z" fill="#273454"/>
<path d="M460.292 5.03076V87.5332C460.292 98.2426 451.624 106.924 440.931 106.924V24.4218C440.931 13.7124 449.599 5.03076 460.292 5.03076Z" fill="#273454"/>
<path d="M552.714 30.6418L513.305 123.992C508.441 135.513 497.165 143 484.675 143L501.27 104.996L472.284 34.7939C471.467 32.8156 472.921 30.6418 475.062 30.6418H490.191C491.447 30.6418 492.571 31.4235 493.008 32.6014L512.057 83.9293L524.842 49.9534C529.215 38.3337 540.316 30.6418 552.714 30.6418Z" fill="#273454"/>
<path d="M592.469 108.163C586.2 108.163 580.576 107.062 575.597 104.859C570.619 102.564 566.654 99.4887 563.704 95.6333C560.846 91.7779 559.279 87.5094 559.002 82.8278H569.811C574.777 82.8278 578.86 87.0833 582.788 90.1255C585.37 92.0533 588.551 93.0171 592.331 93.0171C596.018 93.0171 598.876 92.2827 600.905 90.814C603.025 89.3453 604.085 87.4635 604.085 85.1686C604.085 82.6901 602.795 80.8542 600.213 79.6608C597.724 78.3757 593.714 76.9987 588.182 75.53C582.466 74.1531 577.764 72.7302 574.076 71.2615C570.481 69.7928 567.346 67.5438 564.672 64.5145C562.091 61.4852 560.8 57.4003 560.8 52.2597C560.8 48.0371 561.999 44.1817 564.396 40.6935C566.885 37.2052 570.388 34.4513 574.906 32.4318C579.516 30.4123 584.909 29.4026 591.086 29.4026C600.213 29.4026 607.497 31.6975 612.936 36.2873C618.375 40.7853 621.372 46.8897 621.925 54.6005H611.781C607.03 54.6005 603.312 50.3089 599.522 47.4405C597.309 45.6045 594.313 44.6866 590.533 44.6866C587.029 44.6866 584.31 45.3292 582.374 46.6143C580.53 47.8994 579.608 49.6895 579.608 51.9844C579.608 54.5546 580.898 56.5283 583.48 57.9052C586.061 59.1903 590.072 60.5214 595.511 61.8983C601.043 63.2753 605.607 64.6981 609.202 66.1668C612.798 67.6356 615.886 69.9305 618.468 73.0515C621.141 76.0808 622.524 80.1198 622.616 85.1686C622.616 89.5748 621.372 93.522 618.882 97.0102C616.485 100.498 612.982 103.252 608.372 105.272C603.855 107.2 598.554 108.163 592.469 108.163Z" fill="#273454"/>
<path d="M661.051 46.4766V83.3785C661.051 85.9488 661.65 87.8307 662.848 89.024C664.139 90.1256 666.26 90.6763 669.21 90.6763H678.199V94.7355C678.199 101.467 672.75 106.924 666.029 106.924C649.711 106.924 641.551 99.0297 641.551 83.2409V51.687H635.429C633.77 51.687 632.424 50.3415 632.424 48.6818V34.8633C632.424 33.2036 633.77 31.8581 635.429 31.8581H641.551V31.3073C641.551 20.5214 650.281 11.7778 661.051 11.7778V30.6418V46.4766Z" fill="#273454"/>
<path d="M348.74 35.6947C348.74 33.486 350.531 31.6956 352.739 31.6956H364.737C366.945 31.6956 368.736 33.486 368.736 35.6947V47.692C368.736 49.9006 366.945 51.6911 364.737 51.6911H352.739C350.531 51.6911 348.74 49.9006 348.74 47.692V35.6947Z" fill="#7062E3"/>
<path d="M666.004 35.8043C666.004 33.5956 667.794 31.8052 670.003 31.8052H682C684.209 31.8052 685.999 33.5956 685.999 35.8043V47.8016C685.999 50.0103 684.209 51.8007 682 51.8007H670.003C667.794 51.8007 666.004 50.0103 666.004 47.8016V35.8043Z" fill="#7062E3"/>
<path fill-rule="evenodd" clip-rule="evenodd" d="M143.27 57.1761C146.822 63.4041 146.822 71.0774 143.27 77.3054L116.729 123.837C113.177 130.065 106.612 133.901 99.5073 133.901H46.4265C39.3219 133.901 32.7569 130.065 29.2046 123.837L2.66424 77.3054C-0.888072 71.0774 -0.888087 63.4041 2.66424 57.1761L29.2046 10.645C32.7569 4.41695 39.3219 0.580322 46.4265 0.580322L99.5072 0.580325C106.612 0.580325 113.177 4.41694 116.729 10.6449L143.27 57.1761ZM94.9363 66.4195C94.9363 68.3603 94.8077 70.107 94.5505 71.6596H55.4908C55.8122 75.5412 57.1624 78.5817 59.5414 80.7813C61.9203 82.9809 64.8458 84.0806 68.3178 84.0806C73.3328 84.0806 76.9013 81.9134 79.023 77.579H93.586C92.0429 82.7544 89.0853 87.0242 84.7132 90.3882C80.3411 93.6875 74.9724 95.3372 68.6071 95.3372C63.4634 95.3372 58.8341 94.2051 54.7192 91.9408C50.6686 89.6119 47.4859 86.3449 45.1713 82.1399C42.9209 77.9348 41.7957 73.0828 41.7957 67.584C41.7957 62.0204 42.9209 57.1361 45.1713 52.931C47.4216 48.726 50.5721 45.4913 54.6228 43.2271C58.6734 40.9628 63.3348 39.8307 68.6071 39.8307C73.6865 39.8307 78.2193 40.9305 82.2057 43.1301C86.2563 45.3296 89.3747 48.4672 91.5607 52.5429C93.8111 56.5538 94.9363 61.1794 94.9363 66.4195ZM80.9519 62.5379C80.8876 59.0445 79.6338 56.2627 77.1906 54.1925C74.7474 52.0577 71.7576 50.9902 68.2213 50.9902C64.8779 50.9902 62.0489 52.0253 59.7343 54.0955C57.4839 56.101 56.1016 58.9151 55.5872 62.5379H80.9519ZM100.406 77.3622C98.5743 77.3622 97.0894 78.8772 97.0894 80.746V90.8973C97.0894 92.7661 98.5743 94.2811 100.406 94.2811H110.356C112.188 94.2811 113.673 92.7661 113.673 90.8973V80.746C113.673 78.8772 112.188 77.3622 110.356 77.3622H100.406Z" fill="url(#paint0_linear_1461_143)"/>
<defs>
<linearGradient id="paint0_linear_1461_143" x1="145.934" y1="24.8205" x2="5.5865" y2="139.849" gradientUnits="userSpaceOnUse">
<stop stop-color="#6E60DE"/>
<stop offset="1" stop-color="#DEDAFD"/>
</linearGradient>
</defs>
</svg>
